<?xml version="1.0" encoding="UTF-8"?>
<svg
   width="10.093095mm"
   height="12.845757mm"
   viewBox="0 0 10.093095 12.845756"
   version="1.1"
   xmlns="http://www.w3.org/2000/svg">
  <g transform="matrix(0.030587,0,0,0.030587,-2.7522,-1.5294)">
    <!-- Green: Leaf + Stem + Top of apple -->
    <g fill="#00cc00">
      <rect x="300" y="50" width="60" height="30"/>
      <rect x="270" y="80" width="60" height="30"/>
      <rect x="270" y="110" width="30" height="30"/>
      <rect x="150" y="140" width="90" height="30"/>
      <rect x="300" y="140" width="90" height="30"/>
      <rect x="120" y="170" width="300" height="30"/>
    </g>
    <!-- Yellow -->
    <rect x="90" y="200" width="270" height="60" fill="#ffff00"/>
    <!-- Orange -->
    <g fill="#ff9900">
      <rect x="90" y="260" width="270" height="30"/>
      <rect x="90" y="290" width="300" height="30"/>
    </g>
    <!-- Red -->
    <rect x="90" y="320" width="330" height="30" fill="#ff0000"/>
    <!-- Magenta/Pink -->
    <rect x="120" y="350" width="300" height="60" fill="#ff00cc"/>
    <!-- Blue: Bottom + Feet -->
    <g fill="#0000ff">
      <rect x="150" y="410" width="240" height="30"/>
      <rect x="180" y="440" width="60" height="30"/>
      <rect x="300" y="440" width="60" height="30"/>
    </g>
  </g>
</svg>