<svg width="15" height="15" viewBox="0 0 15 15" fill="none" xmlns="http://www.w3.org/2000/svg">
  <!-- OUTER BORDER (same style as button.svg) -->
  <!-- Top edge -->
  <rect x="6" y="0" width="3" height="3" fill="black"/>
  <!-- Bottom edge -->
  <rect x="6" y="12" width="3" height="3" fill="black"/>
  <!-- Left edge -->
  <rect x="0" y="6" width="3" height="3" fill="black"/>
  <!-- Right edge -->
  <rect x="12" y="6" width="3" height="3" fill="black"/>
  
	<!-- Top-left corner -->
	<rect x="0" y="5" width="4" height="1" fill="black" />
	<rect x="1" y="4" width="3" height="1" fill="black" />
	<rect x="1" y="3" width="3" height="1" fill="black" />
	<rect x="2" y="2" width="1" height="1" fill="black" />
	<rect x="5" y="0" width="1" height="4" fill="black" />
	<rect x="4" y="1" width="1" height="3" fill="black" />
	<rect x="3" y="1" width="1" height="3" fill="black" />

	<!-- Top-right corner -->
	<rect x="11" y="5" width="4" height="1" fill="black" />
	<rect x="11" y="4" width="3" height="1" fill="black" />
	<rect x="11" y="3" width="3" height="1" fill="black" />
	<rect x="12" y="2" width="1" height="1" fill="black" />
	<rect x="9" y="0" width="1" height="4" fill="black" />
	<rect x="10" y="1" width="1" height="3" fill="black" />
	<rect x="11" y="1" width="1" height="3" fill="black" />

	<!-- Bottom-right corner -->
	<rect x="11" y="9" width="4" height="1" fill="black" />
	<rect x="11" y="10" width="3" height="1" fill="black" />
	<rect x="11" y="11" width="3" height="1" fill="black" />
	<rect x="12" y="12" width="1" height="1" fill="black" />
	<rect x="9" y="11" width="1" height="4" fill="black" />
	<rect x="10" y="11" width="1" height="3" fill="black" />
	<rect x="11" y="11" width="1" height="3" fill="black" />

	<!-- Bottom-left corner -->
	<rect x="0" y="9" width="4" height="1" fill="black" />
	<rect x="1" y="10" width="3" height="1" fill="black" />
	<rect x="1" y="11" width="3" height="1" fill="black" />
	<rect x="2" y="12" width="1" height="1" fill="black" />
	<rect x="5" y="11" width="1" height="4" fill="black" />
	<rect x="4" y="11" width="1" height="3" fill="black" />
	<rect x="3" y="11" width="1" height="3" fill="black" />
</svg>